<svg xmlns="http://www.w3.org/2000/svg" viewBox="0 0 24 24" fill="none" stroke="#2563eb" stroke-width="2" stroke-linecap="round" stroke-linejoin="round">
  <rect width="24" height="24" rx="6" fill="#2563eb"/>
  <path d="M12 5a3 3 0 0 0-3 3c0 .8.3 1.5.8 2a3 3 0 0 0-1.8 2.7c0 1.2.7 2.2 1.8 2.6A3 3 0 0 0 12 19a3 3 0 0 0 2.2-3.7c1.1-.4 1.8-1.4 1.8-2.6 0-1.2-.7-2.2-1.8-2.7a3 3 0 0 0 .8-2 3 3 0 0 0-3-3z" stroke="#ffffff" stroke-width="2"/>
  <path d="M12 5v14" stroke="#ffffff" stroke-width="1.5"/>
</svg>
